<?xml version="1.0" encoding="iso-8859-1"?>
<!-- Generator: Adobe Illustrator 19.0.0, SVG Export Plug-In . SVG Version: 6.00 Build 0)  -->
<svg xmlns="http://www.w3.org/2000/svg" xmlns:xlink="http://www.w3.org/1999/xlink" version="1.1" id="Layer_1" x="0px" y="0px" viewBox="0 0 512 512" style="enable-background:new 0 0 512 512;" xml:space="preserve" width="512" height="512">
<g>
	<path d="M309.033,249.033L287.82,227.82c-8.5,8.5-19.8,13.18-31.82,13.18s-23.32-4.681-31.82-13.18l-21.213,21.213   C217.132,263.199,235.967,271,256,271S294.867,263.199,309.033,249.033z"/>
	<path d="M166,332c-41.355,0-75,33.645-75,75v105h330V407c0-41.355-33.645-75-75-75h-15v-23.806c36.154-24.248,60-65.487,60-112.194   v-61C391,60.561,330.439,0,256,0S121,60.561,121,135v61c0,46.708,23.846,87.947,60,112.194V332H166z M121,407   c0-24.813,20.187-45,45-45h23.787c8.298,8.298,36.398,36.399,49.051,49.051L215.188,482H121V407z M256,454.435L265.188,482h-18.377   L256,454.435z M346,362c24.813,0,45,20.187,45,45v75h-94.188l-23.65-70.949c8.088-8.088,36.433-36.433,49.051-49.051H346z M256,30   c52.805,0,96.623,39.183,103.924,90H301V80.729L222.459,120h-70.383C159.377,69.183,203.195,30,256,30z M151,196v-46h78.541   L271,129.271V150h90v46c0,57.897-47.103,105-105,105S151,253.897,151,196z M256,331c15.772,0,30.918-2.728,45-7.722v17.509   c-5.039,5.039-41.093,41.093-45,45c-4.01-4.01-40.03-40.03-45-45v-17.509C225.082,328.272,240.228,331,256,331z"/>
	<rect x="301" y="422" width="60" height="30"/>
</g>















</svg>
